<svg width="1440" height="110" viewBox="0 0 1440 110" fill="none" xmlns="http://www.w3.org/2000/svg">
<path d="M1354.98 117.744H1322.43V1.73145H1390.13C1420.78 1.73145 1436.88 14.5448 1436.88 37.2279C1436.88 55.5822 1427.71 66.4908 1405.54 69.2613V70.9928C1417.49 74.1096 1421.3 79.8237 1425.63 88.6545L1440 117.744H1402.43L1388.57 89.3471C1384.42 80.6894 1380.95 78.2653 1368.31 78.2653H1354.98V117.744ZM1354.98 30.9944V54.0238H1389.79C1399.31 54.0238 1402.77 52.2923 1402.77 42.4225C1402.77 33.2454 1399.31 30.9944 1389.79 30.9944H1354.98Z" fill="#B5BDC1"/>
<path d="M1302.79 117.744H1199.76V1.73145H1302.79V30.9944H1232.31V44.8467H1300.19V73.9364H1232.31V88.4813H1302.79V117.744Z" fill="#B5BDC1"/>
<path d="M1107.66 117.744H1075.1V1.73145H1139.34C1166.87 1.73145 1184.19 17.4884 1184.19 45.0198C1184.19 72.5512 1166.87 88.4813 1139.34 88.4813H1107.66V117.744ZM1135.71 30.9944H1107.66V59.2184H1135.71C1147.14 59.2184 1151.81 56.9674 1151.81 45.0198C1151.81 33.2454 1147.14 30.9944 1135.71 30.9944Z" fill="#B5BDC1"/>
<path d="M930.668 117.744H898.115V1.73145H942.269L963.567 49.8681L974.995 79.8237H977.246L988.155 49.8681L1008.41 1.73145H1052.57V117.744H1020.02V69.7808L1021.23 50.3876H1018.98L1012.4 69.7808L995.081 110.818H955.602L938.287 69.7808L931.707 50.3876H929.456L930.668 69.7808V117.744Z" fill="#B5BDC1"/>
<path d="M818.754 119.476C778.236 119.476 759.535 99.9095 759.535 69.0882V1.73145H792.088V66.4908C792.088 82.9404 796.763 87.9619 818.754 87.9619C840.744 87.9619 845.419 82.9404 845.419 66.4908V1.73145H877.972V69.0882C877.972 99.9095 859.272 119.476 818.754 119.476Z" fill="#B5BDC1"/>
<path d="M683.856 119.476C644.204 119.476 629.659 101.641 629.659 68.0492V63.5472H664.29V67.7029C664.29 83.4599 665.156 87.9619 683.856 87.9619C702.384 87.9619 703.769 83.8062 703.769 69.4345V1.73145H738.4V69.7808C738.4 102.16 723.682 119.476 683.856 119.476Z" fill="#B5BDC1"/>
<path d="M491.189 117.744H458.636V1.73145H491.189V44.8467H545.213V1.73145H577.766V117.744H545.213V74.1096H491.189V117.744Z" fill="#B5BDC1"/>
<path d="M377.336 119.476C336.991 119.476 313.269 95.927 313.269 59.7379C313.269 23.5489 336.991 0 377.336 0C416.295 0 439.671 18.5274 439.671 49.5219V52.4655H403.309V49.5219C403.309 36.3622 397.075 31.1676 377.855 31.1676C354.306 31.1676 347.9 36.7085 347.9 59.7379C347.9 82.7674 354.306 88.3083 377.855 88.3083C397.075 88.3083 403.309 83.1137 403.309 69.954V67.0104H439.671V69.954C439.671 100.948 416.295 119.476 377.336 119.476Z" fill="#B5BDC1"/>
<path d="M266.274 117.744H233.721V30.9944H192.684V1.73145H307.138V30.9944H266.274V117.744Z" fill="#B5BDC1"/>
<path d="M174.494 117.744H141.941V1.73145H174.494V117.744Z" fill="#B5BDC1"/>
<path d="M58.699 117.744H0V1.73145H58.699C96.966 1.73145 121.207 23.0293 121.207 59.7379C121.207 96.4464 96.966 117.744 58.699 117.744ZM58.699 30.9944H32.5529V88.4813H58.699C79.3043 88.4813 86.4036 85.884 86.4036 59.7379C86.4036 33.5917 79.3043 30.9944 58.699 30.9944Z" fill="#B5BDC1"/>
</svg>
