<svg width="289" height="24" viewBox="0 0 289 24" fill="none" xmlns="http://www.w3.org/2000/svg">
<path d="M271.174 23.5643H264.659V0.346588H278.208C284.342 0.346588 287.565 2.91093 287.565 7.45051C287.565 11.1238 285.728 13.3069 281.292 13.8614V14.2079C283.683 14.8317 284.446 15.9752 285.312 17.7425L288.188 23.5643H280.669L277.896 17.8811C277.065 16.1485 276.372 15.6633 273.842 15.6633H271.174V23.5643ZM271.174 6.20299V10.8119H278.139C280.045 10.8119 280.738 10.4653 280.738 8.49011C280.738 6.65348 280.045 6.20299 278.139 6.20299H271.174Z" fill="white"/>
<path d="M260.727 23.5643H240.108V0.346588H260.727V6.20299H246.623V8.97525H260.207V14.797H246.623V17.7079H260.727V23.5643Z" fill="white"/>
<path d="M221.675 23.5643H215.161V0.346588H228.017C233.527 0.346588 236.992 3.50003 236.992 9.00991C236.992 14.5198 233.527 17.7079 228.017 17.7079H221.675V23.5643ZM227.289 6.20299H221.675V11.8515H227.289C229.576 11.8515 230.512 11.401 230.512 9.00991C230.512 6.65348 229.576 6.20299 227.289 6.20299Z" fill="white"/>
<path d="M186.255 23.5643H179.74V0.346588H188.577L192.839 9.9802L195.126 15.9752H195.577L197.76 9.9802L201.814 0.346588H210.651V23.5643H204.136V13.9653L204.379 10.0842H203.928L202.611 13.9653L199.146 22.1782H191.245L187.78 13.9653L186.463 10.0842H186.012L186.255 13.9653V23.5643Z" fill="white"/>
<path d="M163.857 23.9108C155.748 23.9108 152.006 19.995 152.006 13.8267V0.346588H158.521V13.3069C158.521 16.599 159.456 17.6039 163.857 17.6039C168.258 17.6039 169.194 16.599 169.194 13.3069V0.346588H175.709V13.8267C175.709 19.995 171.966 23.9108 163.857 23.9108Z" fill="white"/>
<path d="M136.86 23.9108C128.925 23.9108 126.014 20.3415 126.014 13.6188V12.7178H132.944V13.5495C132.944 16.7029 133.118 17.6039 136.86 17.6039C140.568 17.6039 140.845 16.7722 140.845 13.896V0.346588H147.776V13.9653C147.776 20.4455 144.83 23.9108 136.86 23.9108Z" fill="white"/>
<path d="M98.3024 23.5643H91.7876V0.346588H98.3024V8.97525H109.114V0.346588H115.629V23.5643H109.114V14.8317H98.3024V23.5643Z" fill="white"/>
<path d="M75.516 23.9108C67.4418 23.9108 62.6943 19.1979 62.6943 11.9554C62.6943 4.71284 67.4418 0 75.516 0C83.313 0 87.9912 3.7079 87.9912 9.91084V10.4999H80.714V9.91084C80.714 7.27719 79.4665 6.23759 75.62 6.23759C70.9072 6.23759 69.625 7.34649 69.625 11.9554C69.625 16.5643 70.9072 17.6732 75.62 17.6732C79.4665 17.6732 80.714 16.6336 80.714 13.9999V13.4108H87.9912V13.9999C87.9912 20.2029 83.313 23.9108 75.516 23.9108Z" fill="white"/>
<path d="M53.2897 23.5643H46.7748V6.20299H38.562V0.346588H61.4678V6.20299H53.2897V23.5643Z" fill="white"/>
<path d="M34.9216 23.5643H28.4067V0.346588H34.9216V23.5643Z" fill="white"/>
<path d="M11.7479 23.5643H0.000488281V0.346588H11.7479C19.4063 0.346588 24.2578 4.60894 24.2578 11.9554C24.2578 19.3019 19.4063 23.5643 11.7479 23.5643ZM11.7479 6.20299H6.5153V17.7079H11.7479C15.8717 17.7079 17.2925 17.1881 17.2925 11.9554C17.2925 6.72279 15.8717 6.20299 11.7479 6.20299Z" fill="white"/>
</svg>
