<svg width="48" height="48" viewBox="0 0 48 48" fill="none" xmlns="http://www.w3.org/2000/svg">
<mask id="mask0_184_903" style="mask-type:alpha" maskUnits="userSpaceOnUse" x="0" y="0" width="48" height="48">
<rect width="48" height="48" fill="#D9D9D9"/>
</mask>
<g mask="url(#mask0_184_903)">
<path d="M30.5 32.5H38.5V24.5H36V30H30.5V32.5ZM24.003 29.75C25.601 29.75 26.9583 29.1907 28.075 28.072C29.1917 26.9533 29.75 25.595 29.75 23.997C29.75 22.399 29.1907 21.0417 28.072 19.925C26.9533 18.8083 25.595 18.25 23.997 18.25C22.399 18.25 21.0417 18.8093 19.925 19.928C18.8083 21.0467 18.25 22.405 18.25 24.003C18.25 25.601 18.8093 26.9583 19.928 28.075C21.0467 29.1917 22.405 29.75 24.003 29.75ZM9.5 23.75H12V18.25H17.5V15.75H9.5V23.75ZM4 38V10H44V38H4ZM7 35H41V13H7V35Z" fill="#364E6D"/>
</g>
</svg>
